<?xml version="1.0" encoding="UTF-8" standalone="no"?>
<!-- Created with Inkscape (http://www.inkscape.org/) -->

<svg
   xmlns:dc="http://purl.org/dc/elements/1.1/"
   xmlns:cc="http://creativecommons.org/ns#"
   xmlns:rdf="http://www.w3.org/1999/02/22-rdf-syntax-ns#"
   xmlns:svg="http://www.w3.org/2000/svg"
   xmlns="http://www.w3.org/2000/svg"
   version="1.1"
   width="1875"
   height="1875"
   id="svg2"
   xml:space="preserve"><metadata
     id="metadata8"><rdf:RDF><cc:Work
         rdf:about=""><dc:format>image/svg+xml</dc:format><dc:type
           rdf:resource="http://purl.org/dc/dcmitype/StillImage" /><dc:title></dc:title></cc:Work></rdf:RDF></metadata><defs
     id="defs6"><clipPath
       id="clipPath16"><path
         d="m 0,1500 1500,0 L 1500,0 0,0 0,1500 z"
         id="path18" /></clipPath></defs><g
     transform="matrix(1.25,0,0,-1.25,0,1875)"
     id="g10"><g
       id="g12"><g
         clip-path="url(#clipPath16)"
         id="g14"><g
           transform="translate(17.3755,751.4443)"
           id="g20"><path
             d="m 0,0 c 0,-404.181 327.674,-731.854 731.871,-731.854 404.212,0 731.869,327.673 731.869,731.854 0,404.22 -327.657,731.879 -731.869,731.879 C 327.674,731.879 0,404.22 0,0"
             id="path22"
             style="fill:#f0b100;fill-opacity:1;fill-rule:nonzero;stroke:none" /></g><g
           transform="translate(226.6978,416.5859)"
           id="g24"><path
             d="m 0,0 0,107.271 c 0,5.668 4.438,10.01 10.186,10.01 5.748,0 10.393,-4.342 10.393,-10.01 l 0,-43.633 48.072,0 0,43.633 c 0,5.668 4.439,10.01 10.202,10.01 5.748,0 10.394,-4.342 10.394,-10.01 L 89.247,0 c 0,-5.651 -4.646,-10.026 -10.394,-10.026 -5.763,0 -10.202,4.375 -10.202,10.026 l 0,43.649 -48.072,0 0,-43.649 c 0,-5.651 -4.645,-10.026 -10.393,-10.026 C 4.438,-10.026 0,-5.651 0,0"
             id="path26"
             style="fill:#424242;fill-opacity:1;fill-rule:nonzero;stroke:none" /></g><g
           transform="translate(419.7202,451.8379)"
           id="g28"><path
             d="m 0,0 0,-35.635 c 0,-5.268 -4.439,-9.643 -9.851,-9.643 -4.806,0 -8.51,3.48 -9.628,7.823 -7.056,-4.886 -15.39,-7.823 -24.682,-7.823 -12.613,0 -23.565,5.109 -31.547,13.283 -7.967,8.366 -12.614,19.637 -12.614,31.995 0,12.597 4.647,23.852 12.614,32.026 7.982,8.367 18.934,13.635 31.547,13.635 9.292,0 17.626,-3.082 24.682,-7.982 1.118,4.533 4.822,7.982 9.628,7.982 C -4.439,45.661 0,41.286 0,35.857 L 0,0 z m -19.67,0 c 0,7.662 -2.778,14.209 -7.248,18.743 -4.439,4.917 -10.745,7.488 -17.243,7.488 -6.673,0 -12.996,-2.571 -17.243,-7.488 C -65.874,14.209 -68.46,7.662 -68.46,0 c 0,-7.44 2.586,-13.97 7.056,-18.712 4.247,-4.565 10.57,-7.089 17.243,-7.089 6.498,0 12.804,2.524 17.243,7.089 4.47,4.742 7.248,11.272 7.248,18.712"
             id="path30"
             style="fill:#424242;fill-opacity:1;fill-rule:nonzero;stroke:none" /></g><g
           transform="translate(435.2065,382.1963)"
           id="g32"><path
             d="m 0,0 0,69.481 0,0.161 0,36.017 c 0,5.269 4.438,9.644 9.834,9.644 5.189,0 9.452,-3.449 10.187,-7.441 6.864,4.343 15.773,7.441 25.257,7.441 24.666,0 44.894,-20.724 44.894,-45.661 0,-24.907 -20.228,-45.087 -44.894,-45.087 -9.293,0 -18.201,2.746 -24.874,7.471 L 20.404,0 c 0,-5.077 -4.647,-9.803 -10.57,-9.803 C 4.438,-9.803 0,-5.077 0,0 m 20.404,69.642 c 0,-7.09 2.394,-13.987 7.216,-18.169 4.662,-5.109 10.793,-7.632 17.658,-7.632 6.29,0 12.612,2.523 17.434,7.632 4.263,4.182 7.232,11.079 7.232,18.169 0,7.12 -2.969,13.666 -7.232,18.391 -4.822,4.917 -11.144,7.44 -17.434,7.44 -6.865,0 -12.996,-2.523 -17.658,-7.44 -4.822,-4.725 -7.216,-11.271 -7.216,-18.391"
             id="path34"
             style="fill:#424242;fill-opacity:1;fill-rule:nonzero;stroke:none" /></g><g
           transform="translate(540.8491,382.1963)"
           id="g36"><path
             d="m 0,0 0,69.481 0,0.161 0,36.017 c 0,5.269 4.455,9.644 9.834,9.644 5.189,0 9.468,-3.449 10.203,-7.441 6.864,4.343 15.773,7.441 25.256,7.441 24.651,0 44.896,-20.724 44.896,-45.661 0,-24.907 -20.245,-45.087 -44.896,-45.087 -9.291,0 -18.2,2.746 -24.874,7.471 L 20.419,0 c 0,-5.077 -4.645,-9.803 -10.585,-9.803 C 4.455,-9.803 0,-5.077 0,0 m 20.419,69.642 c 0,-7.09 2.395,-13.987 7.233,-18.169 4.646,-5.109 10.761,-7.632 17.641,-7.632 6.291,0 12.598,2.523 17.435,7.632 4.247,4.182 7.216,11.079 7.216,18.169 0,7.12 -2.969,13.666 -7.216,18.391 -4.837,4.917 -11.144,7.44 -17.435,7.44 -6.88,0 -12.995,-2.523 -17.641,-7.44 -4.838,-4.725 -7.233,-11.271 -7.233,-18.391"
             id="path38"
             style="fill:#424242;fill-opacity:1;fill-rule:nonzero;stroke:none" /></g><g
           transform="translate(724.0688,487.8555)"
           id="g40"><path
             d="m 0,0 0,-42.915 0,-25.832 c 0,-24.363 -19.67,-43.458 -44.336,-43.458 -6.69,0 -13.555,1.82 -19.127,4.534 -5.204,2.204 -7.057,7.823 -4.822,12.933 2.411,4.374 8.717,6.353 13.172,3.99 3.528,-1.628 7.072,-2.554 10.777,-2.554 10.936,0.192 20.212,7.121 23.181,16.573 -5.189,-2.907 -11.495,-4.375 -17.626,-4.375 -21.329,0 -38.779,17.274 -38.779,38.189 l 0,42.915 c 0,5.46 4.645,9.644 9.659,9.644 5.747,0 9.818,-4.184 9.818,-9.644 l 0,-42.915 c 0,-10.553 8.734,-18.552 19.302,-18.552 10.57,0 19.111,7.999 19.111,18.552 l 0,42.915 c 0,5.46 4.087,9.644 9.659,9.644 C -4.646,9.644 0,5.46 0,0"
             id="path42"
             style="fill:#424242;fill-opacity:1;fill-rule:nonzero;stroke:none" /></g><g
           transform="translate(739.5391,451.8379)"
           id="g44"><path
             d="m 0,0 c 0,25.289 21.521,45.501 47.13,45.661 11.111,0 21.521,-3.991 29.488,-9.994 4.279,-3.289 5.028,-9.436 2.043,-13.443 -3.688,-4.375 -9.627,-5.11 -13.905,-1.853 -4.821,3.481 -10.761,5.86 -17.626,5.86 C 32.09,26.231 19.669,14.018 19.669,0 c 0,-13.97 12.421,-25.992 27.461,-25.992 6.674,0 12.805,2.363 17.626,5.844 4.087,3.064 10.217,2.33 13.905,-1.997 2.985,-4.039 2.236,-9.85 -2.043,-13.49 C 68.651,-41.287 58.241,-45.278 47.13,-45.278 21.521,-45.278 0,-24.906 0,0"
             id="path46"
             style="fill:#424242;fill-opacity:1;fill-rule:nonzero;stroke:none" /></g><g
           transform="translate(874.0635,406.5596)"
           id="g48"><path
             d="m 0,0 c -21.139,0 -38.589,17.115 -38.589,37.822 l 0,43.474 c 0,5.109 4.455,9.627 9.819,9.627 5.588,0 9.851,-4.518 9.851,-9.627 l 0,-43.474 c 0,-10.362 8.35,-18.536 18.919,-18.536 10.761,0 19.318,8.174 19.494,18.536 l 0,43.474 c 0,5.109 4.071,9.627 9.643,9.627 5.188,0 10.01,-4.518 10.01,-9.627 l 0,-43.474 C 39.147,17.115 21.346,0 0,0"
             id="path50"
             style="fill:#424242;fill-opacity:1;fill-rule:nonzero;stroke:none" /></g><g
           transform="translate(938.8994,533.8672)"
           id="g52"><path
             d="m 0,0 c 5.763,0 10.393,-4.534 10.393,-9.994 l 0,-107.287 c 0,-5.46 -4.63,-10.026 -10.393,-10.026 -5.572,0 -10.202,4.566 -10.202,10.026 l 0,107.287 C -10.202,-4.534 -5.572,0 0,0"
             id="path54"
             style="fill:#424242;fill-opacity:1;fill-rule:nonzero;stroke:none" /></g><g
           transform="translate(1015.9805,487.5049)"
           id="g56"><path
             d="m 0,0 c 0,-5.461 -4.838,-9.994 -10.395,-9.994 l -4.645,0 0,-50.771 c 5.764,0 10.202,-4.534 10.202,-10.154 0,-5.651 -4.438,-10.025 -10.202,-10.025 -11.319,0 -20.595,9.083 -20.595,20.179 l 0,50.771 -5.381,0 c -5.747,0 -10.202,4.533 -10.202,9.994 0,5.65 4.455,9.994 10.202,9.994 l 5.381,0 0,26.374 c 0,5.62 4.63,9.994 10.394,9.994 5.747,0 10.201,-4.374 10.201,-9.994 l 0,-26.374 4.645,0 C -4.838,9.994 0,5.65 0,0"
             id="path58"
             style="fill:#424242;fill-opacity:1;fill-rule:nonzero;stroke:none" /></g><g
           transform="translate(1070.0547,406.5605)"
           id="g60"><path
             d="m 0,0 c -21.17,0 -38.604,17.114 -38.604,37.821 l 0,43.474 c 0,5.109 4.438,9.627 9.819,9.627 5.572,0 9.85,-4.518 9.85,-9.627 l 0,-43.474 c 0,-10.361 8.334,-18.536 18.935,-18.536 10.745,0 19.287,8.175 19.478,18.536 l 0,43.474 c 0,5.109 4.055,9.627 9.643,9.627 5.189,0 10.011,-4.518 10.011,-9.627 l 0,-43.474 C 39.132,17.114 21.33,0 0,0"
             id="path62"
             style="fill:#424242;fill-opacity:1;fill-rule:nonzero;stroke:none" /></g><g
           transform="translate(1181.8135,487.8555)"
           id="g64"><path
             d="m 0,0 c 0,-5.077 -4.263,-9.643 -9.835,-9.643 -4.263,0 -7.983,-1.086 -11.128,-3.449 -3.528,-2.171 -6.307,-5.267 -8.541,-8.717 -4.439,-5.81 -6.674,-12.74 -7.6,-15.31 l 0,-34.533 c 0,-5.269 -4.646,-9.643 -10.218,-9.643 -5.365,0 -9.834,4.374 -9.834,9.643 l 0,71.652 c 0,5.3 4.469,9.451 9.834,9.451 5.572,0 10.218,-4.151 10.218,-9.451 l 0,-1.277 c 1.101,1.277 2.586,2.746 3.895,3.64 6.1,4.024 14.098,7.281 23.374,7.088 C -4.263,9.451 0,5.3 0,0"
             id="path66"
             style="fill:#424242;fill-opacity:1;fill-rule:nonzero;stroke:none" /></g><g
           transform="translate(1181.8135,452.0293)"
           id="g68"><path
             d="m 0,0 c 0.19,24.746 19.86,45.47 45.277,45.47 24.108,0 43.236,-17.626 44.703,-42.181 l 0,-0.927 c 0,-0.35 0,-1.277 -0.174,-1.628 -0.559,-4.375 -4.455,-7.281 -9.644,-7.281 l -59.009,0 c 0.943,-4.182 2.971,-8.907 6.307,-12.006 3.895,-4.342 11.32,-7.631 17.817,-8.174 6.674,-0.543 14.657,1.086 19.286,4.536 3.879,4.022 11.511,3.463 13.922,0.574 2.427,-2.571 4.263,-7.999 0,-11.846 -9.1,-8.175 -20.037,-12.006 -33.208,-12.006 C 19.86,-45.294 0.19,-24.715 0,0 m 20.228,8.908 52.51,0 C 70.886,16.189 61.419,26.902 45.277,28.195 29.504,27.461 21.696,16.38 20.228,8.908"
             id="path70"
             style="fill:#424242;fill-opacity:1;fill-rule:nonzero;stroke:none" /></g><g
           transform="translate(812.1816,1129.186)"
           id="g72"><path
             d="M 0,0 C 17.227,28.483 37.136,56.318 72.195,61.851 87.49,64.253 80.977,87.435 65.794,85.033 24.746,78.59 -0.543,45.598 -20.787,12.134 -28.834,-1.141 -8.047,-13.258 0,0"
             id="path74"
             style="fill:#424242;fill-opacity:1;fill-rule:nonzero;stroke:none" /></g><g
           transform="translate(1042.0361,992.874)"
           id="g76"><path
             d="m 0,0 c -75.612,30.238 -170.847,-22.256 -234.5,-59.392 -9.116,-5.3 -18.121,-10.857 -27.03,-16.572 -2.618,-1.661 -5.204,-3.4 -7.823,-5.108 -0.783,-0.927 -5.62,-7.218 4.31,-12.358 10.793,-5.588 19.096,0 19.096,0 l 0.063,0 c 1.884,1.245 3.768,2.491 5.684,3.736 55.767,36.209 118.942,66.88 182.308,73.058 53.054,5.172 103.729,-29.057 110.977,-83.915 8.509,-64.436 -44.719,-101.763 -102.818,-101.763 -28.131,0 -52.749,10.473 -77.736,22.191 -34.277,16.125 -67.261,34.837 -100.662,52.623 -12.867,6.833 -26.056,13.091 -39.179,19.445 -8.045,3.896 -16.077,7.856 -24.012,12.006 -9.674,5.046 -19.206,10.347 -28.386,16.253 -2.81,1.805 -5.587,3.64 -8.35,5.493 23.884,35.667 35.811,75.803 55.799,113.705 0.16,0.288 0.32,0.607 0.479,0.895 25.896,-8.43 59.088,-4.407 77.528,13.762 23.63,23.261 -11.144,61.491 -37.614,58.369 -14.002,-1.668 -25.784,-10.154 -35.747,-21.402 -3.433,-8.581 4.998,-13.881 4.998,-13.881 7.614,-5.014 14.017,-0.639 14.017,-0.639 8.206,9.156 17.418,15.08 26.247,10.697 17.418,-8.621 9.979,-19.765 -4.214,-23.949 -10.123,-3.001 -22.193,-3.831 -33.017,-1.5 0.031,0 0.031,0 0.031,0.032 -0.095,0 -0.159,0 -0.255,0.032 -3.177,0.702 -6.258,1.66 -9.132,2.937 -0.287,0.128 -0.542,0.256 -0.798,0.351 -4.183,1.949 -8.063,4.344 -11.783,6.962 -0.032,0 -0.047,0.032 -0.064,0.032 -12.772,9.004 -23.405,20.97 -36.081,29.671 3.32,65.801 -38.541,108.31 -103.36,120.778 -15.152,2.914 -21.617,-20.268 -6.387,-23.213 26.663,-5.133 51.041,-14.552 69.705,-34.988 13.268,-14.56 16.524,-33.328 16.381,-52.215 -0.08,-7.72 -0.703,-15.479 -1.453,-22.983 -0.015,-0.135 -0.048,-0.311 -0.048,-0.479 -0.878,-8.398 -3.097,-26.502 -13.73,-27.556 -20.069,-1.915 -21.649,18.927 -7.072,26.383 0.877,0.439 1.819,0.878 2.825,1.206 0.863,0.311 1.724,0.446 2.587,0.638 l 0.095,0.136 c 7.696,1.373 7.791,11.423 7.791,11.423 -0.159,10.793 -9.387,11.622 -9.451,11.622 -2.236,-0.327 -4.47,-0.797 -6.705,-1.373 -17.243,-4.478 -33.193,-16.507 -32.283,-36.048 1.055,-22.448 26.056,-44.736 49.621,-37.2 17.897,5.747 24.97,21.361 28.355,38.157 10.281,-8.175 19.748,-17.946 27.715,-24.395 -2.298,-4.47 -4.438,-8.781 -6.369,-12.677 -6.051,-12.229 -11.48,-24.906 -16.077,-37.774 -8,-22.32 -19.287,-42.851 -32.539,-62.153 -4.47,-6.498 -9.196,-12.821 -14.081,-19.095 -3.927,-5.028 -7.935,-10.011 -12.07,-14.896 -38.891,-46.045 -91.29,-105.723 -155.024,-111.598 -61.084,-5.636 -110.768,34.837 -110.209,96.367 0.622,70.12 69.209,96.272 129.208,87.714 29.95,-4.279 59.535,-14.113 87.777,-24.651 10.538,-3.926 20.532,-8.812 30.223,-14.208 3.129,-1.756 6.227,-3.545 9.308,-5.397 0,0 8.813,-3.417 14.848,5.764 5.652,8.605 -1.293,13.746 -2.204,14.385 -1.501,0.925 -3.001,1.788 -4.518,2.681 -10.745,6.387 -21.856,12.198 -33.702,16.956 -52.351,20.946 -112.365,39.243 -168.883,26.184 -45.932,-10.602 -80.322,-52.144 -85.223,-98.38 -4.63,-43.713 12.102,-85.894 48.631,-111.119 42.787,-29.504 102.881,-24.81 146.594,-1.469 25.018,13.315 45.773,34.07 66.065,53.452 21.17,20.276 40.855,41.862 58.976,64.82 5.78,-3.927 11.559,-7.823 17.418,-11.591 3.88,-2.491 7.824,-4.885 11.863,-7.185 -4.886,-3.767 -9.804,-7.503 -14.544,-11.415 -30.782,-25.337 -47.945,-62.76 -57.205,-101.013 -12.645,-52.255 0.863,-112.78 38.956,-151.544 36.912,-37.631 95.76,-22.862 126.079,14.082 48.375,58.945 -14.098,188.807 -93.782,138.58 -38.812,-24.459 -35.314,-83.467 -7.008,-113.546 26.95,-28.611 73.329,2.619 58.115,38.348 -6.259,14.721 -19.894,16.349 -33.113,9.995 -13.763,-6.578 -2.156,-26.726 11.495,-21.01 0.51,-2.603 0.383,-5.173 -0.367,-7.792 -3.242,-15.677 -20.324,-1.884 -24.475,3.609 -8.909,11.829 -10.665,26.087 -8.542,40.296 4.997,33.464 41.015,48.12 66.144,25.864 40.154,-35.634 30.75,-105.212 -20.435,-123.668 -35.22,-12.708 -62.552,12.837 -77.671,41.351 -17.611,33.24 -19.095,70.503 -10.394,106.457 10.122,41.861 31.276,69.833 64.084,94.77 1.934,1.438 3.913,2.906 5.861,4.375 19.078,-9.451 38.716,-18.04 57.267,-27.907 33.512,-17.817 66.688,-36.147 101.045,-52.319 43.219,-20.292 88.976,-28.882 135.339,-13.427 46.332,15.471 71.286,57.124 73.857,104.382 C 80.354,-63.862 45.006,-17.978 0,0"
             id="path78"
             style="fill:#424242;fill-opacity:1;fill-rule:nonzero;stroke:none" /></g></g></g></g></svg>