<?xml version="1.0" encoding="UTF-8" standalone="no"?>
<!-- Generator: Adobe Illustrator 15.0.0, SVG Export Plug-In . SVG Version: 6.00 Build 0)  -->

<svg
   xmlns:dc="http://purl.org/dc/elements/1.1/"
   xmlns:cc="http://creativecommons.org/ns#"
   xmlns:rdf="http://www.w3.org/1999/02/22-rdf-syntax-ns#"
   xmlns:svg="http://www.w3.org/2000/svg"
   xmlns="http://www.w3.org/2000/svg"
   xmlns:sodipodi="http://sodipodi.sourceforge.net/DTD/sodipodi-0.dtd"
   xmlns:inkscape="http://www.inkscape.org/namespaces/inkscape"
   version="1.1"
   id="Calque_1"
   x="0px"
   y="0px"
   width="734.07202"
   height="334.15201"
   viewBox="0 0 734.07199 334.152"
   enable-background="new 0 0 1190.55 841.89"
   xml:space="preserve"
   inkscape:version="0.48.5 r10040"
   sodipodi:docname="LOGO DUAEL OK.svg"><metadata
     id="metadata56"><rdf:RDF><cc:Work
         rdf:about=""><dc:format>image/svg+xml</dc:format><dc:type
           rdf:resource="http://purl.org/dc/dcmitype/StillImage" /><dc:title></dc:title></cc:Work></rdf:RDF></metadata><defs
     id="defs54" /><sodipodi:namedview
     pagecolor="#ffffff"
     bordercolor="#666666"
     borderopacity="1"
     objecttolerance="10"
     gridtolerance="10"
     guidetolerance="10"
     inkscape:pageopacity="0"
     inkscape:pageshadow="2"
     inkscape:window-width="1920"
     inkscape:window-height="1044"
     id="namedview52"
     showgrid="false"
     fit-margin-top="2"
     fit-margin-left="2"
     fit-margin-right="2"
     fit-margin-bottom="2"
     inkscape:zoom="0.79286936"
     inkscape:cx="486.64419"
     inkscape:cy="435.26538"
     inkscape:window-x="0"
     inkscape:window-y="0"
     inkscape:window-maximized="1"
     inkscape:current-layer="Calque_1" /><g
     id="g3"
     transform="translate(-228.23901,-253.869)"
     inkscape:export-filename="/home/edouard/Images/logo_duael.png"
     inkscape:export-xdpi="61.607986"
     inkscape:export-ydpi="61.607986"><g
       id="g5"><linearGradient
         id="SVGID_1_"
         gradientUnits="userSpaceOnUse"
         x1="318.23831"
         y1="364.5723"
         x2="329.02499"
         y2="412.03091"><stop
           offset="0"
           style="stop-color:#5D1212"
           id="stop8" /><stop
           offset="1"
           style="stop-color:#FFFFFF"
           id="stop10" /></linearGradient><path
         clip-rule="evenodd"
         d="m 339.092,405.213 c -14.894,0 -28.011,-10.047 -34.313,-14.875 -1.141,-0.873 -2.075,-1.585 -2.772,-2.061 -7.083,-4.988 -13.569,-7.531 -19.244,-7.531 -6.869,0 -12.321,3.749 -15.759,10.702 -3.5,-15.473 -1.531,-28.674 5.866,-39.307 12.727,-18.306 38.265,-24.513 49.989,-25.236 1.279,-0.08 2.542,-0.118 3.791,-0.118 14.733,0 27.644,5.662 38.365,16.827 7.527,7.834 10.981,16.483 10.269,25.707 -0.597,7.803 -3.576,18.945 -14.381,27.687 -6.725,5.444 -14.069,8.205 -21.811,8.205 z"
         id="path12"
         style="fill:url(#SVGID_1_);fill-rule:evenodd"
         inkscape:connector-curvature="0" /><path
         d="m 326.649,328.747 0,0 c 14.381,0 26.472,5.307 36.956,16.223 7.221,7.52 10.399,15.435 9.718,24.202 -0.567,7.42 -3.393,18.011 -13.654,26.312 -6.371,5.153 -13.293,7.769 -20.576,7.769 -14.228,0 -26.993,-9.774 -33.127,-14.469 -1.171,-0.903 -2.136,-1.635 -2.803,-2.087 -7.443,-5.249 -14.312,-7.91 -20.4,-7.91 -6.034,0 -11.073,2.546 -14.779,7.336 -1.96,-12.812 0.214,-23.834 6.494,-32.862 12.757,-18.345 39.337,-23.831 48.503,-24.397 1.233,-0.079 2.458,-0.117 3.668,-0.117 m 0,-3.921 c -1.294,0 -2.596,0.042 -3.913,0.123 -17.092,1.057 -73.536,15.131 -56.062,72.916 2.688,-9.645 8.178,-15.158 16.088,-15.158 5.085,0 11.165,2.274 18.141,7.194 4.648,3.158 19.986,17.271 38.188,17.271 7.382,0 15.239,-2.324 23.042,-8.642 10.399,-8.416 14.351,-19.259 15.101,-29.061 0.758,-9.81 -2.826,-18.907 -10.805,-27.216 -11.133,-11.595 -24.366,-17.427 -39.78,-17.427 l 0,0 z"
         id="path14"
         inkscape:connector-curvature="0"
         style="fill:#5d1212" /></g><g
       id="g16"><path
         d="m 293.116,569.465 v -51.964 c 0,-1.701 0.605,-3.148 1.776,-4.305 1.187,-1.201 2.619,-1.783 4.311,-1.783 h 36.121 v 9.962 h -30.393 v 12.482 h 22.621 v 3.882 c 0,1.686 -0.582,3.117 -1.776,4.304 -1.179,1.187 -2.604,1.776 -4.288,1.776 h -16.556 v 14.849 h 30.393 v 10.797 h -42.209 z"
         id="path18"
         inkscape:connector-curvature="0"
         style="fill:#5d1212" /><path
         d="m 398.002,569.465 h -13.516 l -7.902,-14.159 -8.278,14.159 h -13.668 l 14.672,-23.118 -13.845,-21.771 h 13.003 l 7.765,13.508 8.63,-14.519 c 0.988,-2.029 2.672,-3.033 5.039,-3.033 h 10.131 l -16.877,25.99 14.846,22.943 z"
         id="path20"
         inkscape:connector-curvature="0"
         style="fill:#5d1212" /><path
         d="m 430.992,580.277 c 0,1.578 -0.559,2.926 -1.692,4.059 -1.118,1.11 -2.473,1.685 -4.059,1.685 h -5.728 v -42.032 c 0,-7.872 2.305,-13.248 6.93,-16.119 4.595,-2.872 9.61,-4.304 15.017,-4.304 2.802,0 5.651,0.536 8.515,1.601 2.872,1.079 5.153,2.61 6.838,4.647 3.369,4.389 5.062,10.009 5.062,16.886 0,7.083 -1.692,12.812 -5.062,17.214 -3.377,4.258 -7.711,6.402 -12.995,6.402 -2.818,0 -5.292,-0.506 -7.42,-1.524 -2.259,-1.11 -4.043,-2.849 -5.406,-5.222 v 16.707 z m 19.243,-33.081 c 0,-4.388 -0.842,-7.771 -2.527,-10.131 -1.692,-2.358 -4.127,-3.545 -7.267,-3.545 -3.048,0 -5.406,1.187 -7.091,3.545 -1.57,2.137 -2.358,5.521 -2.358,10.131 0,4.289 0.842,7.482 2.527,9.626 1.692,2.366 4.097,3.538 7.267,3.538 2.925,0 5.23,-1.172 6.923,-3.538 1.684,-2.358 2.526,-5.582 2.526,-9.626 z"
         id="path22"
         inkscape:connector-curvature="0"
         style="fill:#5d1212" /><path
         d="m 512.416,555.628 h 8.446 c -1.248,4.732 -3.614,8.331 -7.091,10.805 -3.5,2.596 -7.872,3.883 -13.171,3.883 -6.417,0 -11.425,-2.075 -15.024,-6.241 -3.599,-4.059 -5.398,-9.84 -5.398,-17.375 0,-7.214 1.746,-12.842 5.223,-16.886 3.599,-4.173 8.615,-6.248 15.032,-6.248 6.747,0 11.984,2.021 15.706,6.08 3.583,4.15 5.391,9.947 5.391,17.383 0,0.451 0,0.842 0,1.187 0,0.329 0,0.56 0,0.667 0,0.566 -0.053,0.957 -0.161,1.187 H 492.17 c 0.107,3.484 0.935,6.072 2.512,7.757 1.47,1.815 3.661,2.703 6.593,2.703 1.922,0 3.545,-0.383 4.901,-1.187 0.33,-0.1 0.651,-0.307 0.927,-0.574 0.268,-0.283 0.574,-0.605 0.919,-0.942 0.123,-0.329 0.543,-0.773 1.271,-1.34 0.726,-0.576 1.767,-0.859 3.123,-0.859 z m -20.248,-13.164 h 17.199 c -0.222,-3.039 -1.011,-5.275 -2.358,-6.746 -1.455,-1.569 -3.53,-2.374 -6.241,-2.374 -2.481,0 -4.495,0.805 -6.088,2.374 -1.577,1.57 -2.404,3.829 -2.512,6.746 z"
         id="path24"
         inkscape:connector-curvature="0"
         style="fill:#5d1212" /><path
         d="m 540.665,569.465 v -21.763 c 0,-4.396 0.65,-8.071 1.944,-11.058 1.286,-2.979 3.079,-5.368 5.337,-7.183 2.121,-1.686 4.626,-2.918 7.49,-3.699 2.879,-0.796 5.834,-1.187 8.875,-1.187 0.214,0 0.49,0 0.826,0 0.338,0 0.629,0 0.858,0 v 11.991 h -3.89 c -3.271,0 -5.683,0.781 -7.252,2.359 -1.57,1.585 -2.375,4.051 -2.375,7.42 v 23.118 h -11.813 z"
         id="path26"
         inkscape:connector-curvature="0"
         style="fill:#5d1212" /><path
         d="m 604.376,569.465 c -3.729,0.229 -7.75,0.185 -12.084,-0.161 -4.326,-0.336 -6.479,-3.086 -6.479,-8.262 v -49.629 h 6.065 c 1.454,0 2.757,0.566 3.89,1.684 1.126,1.126 1.678,2.489 1.678,4.052 v 7.597 h 6.93 v 2.357 c 0,1.7 -0.559,3.071 -1.692,4.136 -1.126,1.072 -2.474,1.616 -4.059,1.616 h -1.179 v 24.971 c 0,1.922 1.133,2.872 3.392,2.872 h 3.538 v 8.767 z"
         id="path28"
         inkscape:connector-curvature="0"
         style="fill:#5d1212" /><path
         d="m 659.365,569.465 v -51.964 c 0,-1.701 0.582,-3.148 1.776,-4.305 1.18,-1.201 2.611,-1.783 4.312,-1.783 h 16.701 c 8.884,0 15.522,2.365 19.918,7.091 4.388,4.938 6.577,12.26 6.577,21.931 0,5.192 -0.788,9.855 -2.357,14.029 -1.801,4.266 -4.166,7.535 -7.092,9.779 -2.48,1.914 -5.115,3.27 -7.934,4.059 -2.711,0.788 -6.799,1.163 -12.312,1.163 h -19.589 z m 11.648,-10.452 h 9.61 c 5.528,0 9.571,-1.463 12.168,-4.389 2.466,-2.703 3.706,-7.428 3.706,-14.189 0,-6.516 -1.194,-11.303 -3.553,-14.335 -2.236,-3.048 -5.836,-4.563 -10.79,-4.563 h -11.142 v 37.476 z"
         id="path30"
         inkscape:connector-curvature="0"
         style="fill:#5d1212" /><path
         d="m 728.3,569.465 v -21.763 c 0,-4.396 0.635,-8.071 1.93,-11.058 1.286,-2.979 3.078,-5.368 5.337,-7.183 2.121,-1.686 4.626,-2.918 7.497,-3.699 2.879,-0.796 5.827,-1.187 8.867,-1.187 0.238,0 0.49,0 0.827,0 0.345,0 0.628,0 0.858,0 v 11.991 h -3.891 c -3.254,0 -5.674,0.781 -7.236,2.359 -1.578,1.585 -2.382,4.051 -2.382,7.42 v 23.118 H 728.3 z"
         id="path32"
         inkscape:connector-curvature="0"
         style="fill:#5d1212" /><path
         d="m 811.231,524.576 v 26.335 c 0,7.994 -2.082,13.217 -6.24,15.697 -4.158,2.481 -8.715,3.707 -13.654,3.707 -4.848,-0.223 -9.273,-1.57 -13.256,-4.043 -4.012,-2.474 -5.995,-7.604 -5.995,-15.361 v -26.335 h 11.823 v 28.7 c 0,2.703 0.773,4.664 2.352,5.912 1.576,1.226 3.369,1.854 5.413,1.854 2.022,0 3.837,-0.628 5.468,-1.854 1.639,-1.248 2.443,-3.209 2.443,-5.912 v -22.957 c 0,-1.578 0.543,-2.933 1.623,-4.059 1.057,-1.118 2.436,-1.685 4.135,-1.685 h 5.888 z"
         id="path34"
         inkscape:connector-curvature="0"
         style="fill:#5d1212" /><path
         d="m 841.862,580.277 c 0,1.578 -0.566,2.926 -1.685,4.059 -1.134,1.11 -2.474,1.685 -4.059,1.685 h -5.728 v -42.032 c 0,-7.872 2.289,-13.248 6.914,-16.119 4.61,-2.872 9.618,-4.304 15.018,-4.304 2.81,0 5.65,0.536 8.529,1.601 2.872,1.079 5.131,2.61 6.831,4.647 3.377,4.389 5.077,10.009 5.077,16.886 0,7.083 -1.7,12.812 -5.077,17.214 -3.369,4.258 -7.711,6.402 -13.003,6.402 -2.803,0 -5.26,-0.506 -7.42,-1.524 -2.252,-1.11 -4.043,-2.849 -5.398,-5.222 v 16.707 z m 19.251,-33.081 c 0,-4.388 -0.85,-7.771 -2.534,-10.131 -1.7,-2.358 -4.12,-3.545 -7.275,-3.545 -3.032,0 -5.391,1.187 -7.075,3.545 -1.585,2.137 -2.366,5.521 -2.366,10.131 0,4.289 0.85,7.482 2.535,9.626 1.684,2.366 4.111,3.538 7.251,3.538 2.933,0 5.23,-1.172 6.931,-3.538 1.684,-2.358 2.533,-5.582 2.533,-9.626 z"
         id="path36"
         inkscape:connector-curvature="0"
         style="fill:#5d1212" /><path
         d="m 920.751,567.612 c -2.358,1.248 -4.87,2.006 -7.504,2.281 -2.635,0.291 -4.985,0.422 -6.992,0.422 -4.066,0 -7.604,-1.088 -10.644,-3.285 -3.048,-2.19 -4.563,-5.828 -4.563,-10.89 0,-4.725 1.37,-8.102 4.135,-10.123 2.764,-2.029 6.287,-3.377 10.552,-4.059 0.567,0 1.241,-0.077 2.029,-0.245 0.781,-0.176 1.677,-0.314 2.688,-0.421 4.954,-0.674 7.443,-2.137 7.443,-4.396 0,-1.686 -0.881,-2.78 -2.619,-3.293 -1.754,-0.506 -3.354,-0.75 -4.824,-0.75 -1.57,0 -2.972,0.222 -4.197,0.666 -1.248,0.459 -2.159,1.302 -2.719,2.534 h -11.31 c 0.46,-3.491 2.036,-6.348 4.732,-8.606 3.04,-2.589 7.366,-3.883 12.995,-3.883 6.295,0 11.035,1.072 14.174,3.216 3.262,2.244 4.894,5.392 4.894,9.442 v 15.354 c 0,4.51 -0.804,8.033 -2.435,10.56 -1.631,2.528 -3.583,4.366 -5.835,5.476 z m -2.703,-20.752 c -1.577,0.78 -3.775,1.523 -6.586,2.189 l -3.859,0.842 c -2.029,0.567 -3.507,1.303 -4.402,2.206 -0.797,1.226 -1.18,2.474 -1.18,3.706 0,1.692 0.506,3.04 1.516,4.051 1.027,0.912 2.475,1.348 4.404,1.348 3.131,0 5.612,-0.896 7.42,-2.703 1.784,-1.784 2.688,-4.265 2.688,-7.428 v -4.211 z"
         id="path38"
         inkscape:connector-curvature="0"
         style="fill:#5d1212" /><path
         d="m 948.503,511.413 h 6.072 c 1.585,0 2.925,0.535 4.051,1.6 1.133,1.08 1.685,2.397 1.685,3.975 v 52.478 h -11.808 v -58.053 z"
         id="path40"
         inkscape:connector-curvature="0"
         style="fill:#5d1212" /></g><path
       d="m 343.564,258.572 h -0.046 l -113.279,0.016 c 24.512,10.384 44.384,29.62 55.594,53.711 h 57.747 c 29.658,0 53.703,24.045 53.703,53.711 0,29.221 -23.34,53.006 -52.401,53.702 v 0.008 h -52.049 v 53.711 h 52.049 c 58.726,-0.704 106.127,-48.534 106.127,-107.421 0,-59.332 -48.121,-107.438 -107.445,-107.438 z"
       id="path42"
       inkscape:connector-curvature="0"
       style="fill:#181717" /><path
       d="m 829.427,301.509 c -87.85,0 -77.641,93.293 -77.641,97.176 0,3.882 3.108,78.384 77.641,78.384 65.22,0 75.113,-55.143 75.113,-55.143 0,0 -20.5,0 -27.047,0 -6.547,0 -15.812,0.421 -22.59,9.71 -7.306,10.008 -23.893,8.676 -23.893,8.676 0,0 -34.221,3.056 -34.221,-39.299 h 109.634 c 10e-4,0 10.851,-99.504 -76.996,-99.504 z m -32.637,70.986 c 0,0 1.477,-34.214 33.333,-34.214 31.856,0 31.304,34.214 31.304,34.214 H 796.79 z"
       id="path44"
       inkscape:connector-curvature="0"
       style="fill:#181717" /><path
       d="m 559.755,328.755 v 82.174 c 0,8.386 -1.623,31.251 -31.029,31.251 -29.405,0 -27.912,-25.209 -27.912,-33.211 0,-8.002 0,-103.661 0,-103.661 h -44.368 c 0,0 0,92.098 0,103.845 0,11.747 2.481,67.916 72.257,67.916 69.776,0 74.708,-43.726 74.708,-67.916 0,-24.19 0,-103.845 0,-103.845 0,0 -13.109,0 -23.233,0 -10.124,0 -20.423,7.924 -20.423,23.447 z"
       id="path46"
       inkscape:connector-curvature="0"
       style="fill:#181717" /><path
       d="m 675.684,304.449 c -62.463,0 -66.56,46.896 -66.56,46.896 h 42.469 c 2.152,-7.474 15.246,-13.109 26.764,-13.109 11.518,0 27.422,3.162 27.047,15.23 -0.375,12.068 -10.139,15.154 -45.57,20.071 -54.193,7.52 -54.01,34.046 -55.036,49.238 -1.026,15.192 -1.179,60.771 69.915,56.789 71.093,-3.981 72.586,-51.275 72.586,-66.836 v -63.712 c -10e-4,-12.742 -9.152,-44.567 -71.615,-44.567 z m 25.952,123.472 c -5.422,11.059 -18.379,19.114 -34.566,17.835 -18.31,-1.447 -24.688,-14.634 -19.565,-28.608 5.122,-13.976 19.795,-13.685 35.914,-17.498 13.071,-3.094 22.683,-7.734 22.683,-7.734 0,0 1.66,23.508 -4.466,36.005 z"
       id="path48"
       inkscape:connector-curvature="0"
       style="fill:#181717" /><path
       d="m 938.126,255.869 c -3.002,0 -22.184,0 -22.184,0 V 473.89 h 44.368 c 0,0 0,-184.908 0,-197.1 0.001,-18.561 -17.183,-20.921 -22.184,-20.921 z"
       id="path50"
       inkscape:connector-curvature="0"
       style="fill:#181717" /></g></svg>